HIERARCHY
ROOT Hips
{
	OFFSET 0.000000 71.427986 0.000000
	CHANNELS 6 Xposition Yposition Zposition Xrotation Yrotation Zrotation
	JOINT Pelvis
	{
		OFFSET 0.000000 0.000000 0.000000
		CHANNELS 3 Xrotation Yrotation Zrotation
		JOINT LeftUpLeg
		{
			OFFSET 6.797100 -2.508499 -1.318700
			CHANNELS 3 Xrotation Yrotation Zrotation
			JOINT LeftLeg
			{
				OFFSET 0.069008 -29.241863 0.690200
				CHANNELS 3 Xrotation Yrotation Zrotation
				JOINT LeftFoot
				{
					OFFSET -0.069008 -29.568123 -0.266800
					CHANNELS 3 Xrotation Yrotation Zrotation
					JOINT LeftToeBase
					{
						OFFSET 3.145500 -8.631000 16.059900
						CHANNELS 3 Xrotation Yrotation Zrotation
						End Site
						{
							OFFSET 0.000000 18.501587 0.000000
						}
					}
				}
			}
			JOINT Left_ShortSleeve
			{
				OFFSET 0.265923 -10.480953 1.153800
				CHANNELS 3 Xrotation Yrotation Zrotation
				End Site
				{
					OFFSET 1.725763 19.823879 0.000000
				}
			}
		}
		JOINT RightUpLeg
		{
			OFFSET -6.797100 -2.508499 -1.318700
			CHANNELS 3 Xrotation Yrotation Zrotation
			JOINT RightLeg
			{
				OFFSET -0.082453 -29.241932 0.688000
				CHANNELS 3 Xrotation Yrotation Zrotation
				JOINT RightFoot
				{
					OFFSET 0.082453 -29.568058 -0.264600
					CHANNELS 3 Xrotation Yrotation Zrotation
					JOINT RightToeBase
					{
						OFFSET -3.115300 -8.682800 16.113400
						CHANNELS 3 Xrotation Yrotation Zrotation
						End Site
						{
							OFFSET 0.000000 18.567114 0.000000
						}
					}
				}
			}
			JOINT Right_ShortSleeve
			{
				OFFSET -0.265923 -10.480953 1.153800
				CHANNELS 3 Xrotation Yrotation Zrotation
				End Site
				{
					OFFSET -1.725766 19.823910 0.000000
				}
			}
		}
	}
	JOINT Spine
	{
		OFFSET 0.000000 13.368103 0.470500
		CHANNELS 3 Xrotation Yrotation Zrotation
		JOINT Spine1
		{
			OFFSET 0.147000 13.837402 0.538800
			CHANNELS 3 Xrotation Yrotation Zrotation
			JOINT Spine2
			{
				OFFSET 0.168000 16.242897 -1.435500
				CHANNELS 3 Xrotation Yrotation Zrotation
				JOINT Neck
				{
					OFFSET 0.217200 18.631500 -1.679100
					CHANNELS 3 Xrotation Yrotation Zrotation
					JOINT Head
					{
						OFFSET 0.000000 6.599396 1.385900
						CHANNELS 3 Xrotation Yrotation Zrotation
						JOINT Hat
						{
							OFFSET -0.532200 27.220596 -10.096100
							CHANNELS 3 Xrotation Yrotation Zrotation
							End Site
							{
								OFFSET 0.000000 22.029861 0.000000
							}
						}
						JOINT HairD
						{
							OFFSET -10.777400 17.437393 -1.325900
							CHANNELS 3 Xrotation Yrotation Zrotation
							JOINT HairD1
							{
								OFFSET -3.290299 -11.051193 1.062200
								CHANNELS 3 Xrotation Yrotation Zrotation
								End Site
								{
									OFFSET 0.000000 11.579437 0.000000
								}
							}
						}
						JOINT HairB
						{
							OFFSET -10.777400 17.437393 1.467900
							CHANNELS 3 Xrotation Yrotation Zrotation
							JOINT HairB1
							{
								OFFSET -1.561200 -12.956299 3.590200
								CHANNELS 3 Xrotation Yrotation Zrotation
								End Site
								{
									OFFSET 0.000000 13.534866 0.000000
								}
							}
						}
						JOINT HairA
						{
							OFFSET 9.713100 17.437393 1.467900
							CHANNELS 3 Xrotation Yrotation Zrotation
							JOINT HairA1
							{
								OFFSET 1.561200 -12.956299 3.590200
								CHANNELS 3 Xrotation Yrotation Zrotation
								End Site
								{
									OFFSET 0.000000 13.534866 0.000000
								}
							}
						}
						JOINT HairC
						{
							OFFSET 9.713100 17.437393 -1.325900
							CHANNELS 3 Xrotation Yrotation Zrotation
							JOINT HairC1
							{
								OFFSET 3.290300 -11.051193 1.062200
								CHANNELS 3 Xrotation Yrotation Zrotation
								End Site
								{
									OFFSET 0.000000 11.579437 0.000000
								}
							}
						}
					}
				}
				JOINT LeftShoulder
				{
					OFFSET 5.101800 15.108002 -2.763700
					CHANNELS 3 Xrotation Yrotation Zrotation
					JOINT LeftArm
					{
						OFFSET 9.825497 2.506317 -1.597400
						CHANNELS 3 Xrotation Yrotation Zrotation
						JOINT LeftForeArm
						{
							OFFSET 21.966244 0.000000 0.000000
							CHANNELS 3 Xrotation Yrotation Zrotation
							JOINT LeftHand
							{
								OFFSET 33.879036 0.000000 0.000000
								CHANNELS 3 Xrotation Yrotation Zrotation
								JOINT LeftHandThumb1
								{
									OFFSET 6.715286 -2.359680 3.363841
									CHANNELS 3 Xrotation Yrotation Zrotation
									JOINT LeftHandThumb2
									{
										OFFSET 2.507072 -1.447464 1.447461
										CHANNELS 3 Xrotation Yrotation Zrotation
										JOINT LeftHandThumb3
										{
											OFFSET 2.898338 -1.673355 1.673357
											CHANNELS 3 Xrotation Yrotation Zrotation
											End Site
											{
												OFFSET -0.295959 3.727692 -0.131651
											}
										}
									}
								}
								JOINT LeftHandIndex1
								{
									OFFSET 14.190811 -0.254547 3.840278
									CHANNELS 3 Xrotation Yrotation Zrotation
									JOINT LeftHandIndex2
									{
										OFFSET 3.551727 0.000000 -0.000000
										CHANNELS 3 Xrotation Yrotation Zrotation
										JOINT LeftHandIndex3
										{
											OFFSET 2.894196 0.000000 0.000000
											CHANNELS 3 Xrotation Yrotation Zrotation
											End Site
											{
												OFFSET -1.000603 2.690872 0.366626
											}
										}
									}
								}
								JOINT LeftHandMiddle1
								{
									OFFSET 13.776489 0.000000 0.000000
									CHANNELS 3 Xrotation Yrotation Zrotation
									JOINT LeftHandMiddle2
									{
										OFFSET 3.438232 0.000000 0.000000
										CHANNELS 3 Xrotation Yrotation Zrotation
										JOINT LeftHandMiddle3
										{
											OFFSET 3.691551 0.000000 0.000000
											CHANNELS 3 Xrotation Yrotation Zrotation
											End Site
											{
												OFFSET -1.082298 3.499527 0.457670
											}
										}
									}
								}
								JOINT LeftHandRing1
								{
									OFFSET 13.966164 -0.268127 -3.067488
									CHANNELS 3 Xrotation Yrotation Zrotation
									JOINT LeftHandRing2
									{
										OFFSET 3.162567 0.000000 0.000000
										CHANNELS 3 Xrotation Yrotation Zrotation
										JOINT LeftHandRing3
										{
											OFFSET 3.324348 0.000000 0.000000
											CHANNELS 3 Xrotation Yrotation Zrotation
											End Site
											{
												OFFSET -0.861900 3.184998 0.405154
											}
										}
									}
								}
								JOINT LeftHandPinky1
								{
									OFFSET 13.131393 -0.168503 -5.746925
									CHANNELS 3 Xrotation Yrotation Zrotation
									JOINT LeftHandPinky2
									{
										OFFSET 2.849182 0.000000 0.000000
										CHANNELS 3 Xrotation Yrotation Zrotation
										JOINT LeftHandPinky3
										{
											OFFSET 2.805038 0.000000 0.000000
											CHANNELS 3 Xrotation Yrotation Zrotation
											End Site
											{
												OFFSET -0.882500 2.642609 0.325652
											}
										}
									}
								}
							}
							JOINT Left_Sleeve
							{
								OFFSET 6.592125 -0.646545 0.805568
								CHANNELS 3 Xrotation Yrotation Zrotation
								End Site
								{
									OFFSET -0.000179 20.275787 -0.000000
								}
							}
						}
					}
				}
				JOINT RightShoulder
				{
					OFFSET -5.731700 15.108002 -2.763700
					CHANNELS 3 Xrotation Yrotation Zrotation
					JOINT RightArm
					{
						OFFSET -9.825497 2.506317 -1.597400
						CHANNELS 3 Xrotation Yrotation Zrotation
						JOINT RightForeArm
						{
							OFFSET -21.966242 0.000000 0.000000
							CHANNELS 3 Xrotation Yrotation Zrotation
							JOINT RightHand
							{
								OFFSET -33.879032 0.000000 0.000000
								CHANNELS 3 Xrotation Yrotation Zrotation
								JOINT RightHandThumb1
								{
									OFFSET -6.715286 -2.359680 3.363841
									CHANNELS 3 Xrotation Yrotation Zrotation
									JOINT RightHandThumb2
									{
										OFFSET -2.507072 -1.447464 1.447461
										CHANNELS 3 Xrotation Yrotation Zrotation
										JOINT RightHandThumb3
										{
											OFFSET -2.898338 -1.673355 1.673357
											CHANNELS 3 Xrotation Yrotation Zrotation
											End Site
											{
												OFFSET 0.295959 3.727692 -0.131651
											}
										}
									}
								}
								JOINT RightHandIndex1
								{
									OFFSET -14.190811 -0.254547 3.840278
									CHANNELS 3 Xrotation Yrotation Zrotation
									JOINT RightHandIndex2
									{
										OFFSET -3.551727 0.000000 -0.000000
										CHANNELS 3 Xrotation Yrotation Zrotation
										JOINT RightHandIndex3
										{
											OFFSET -2.894196 0.000000 0.000000
											CHANNELS 3 Xrotation Yrotation Zrotation
											End Site
											{
												OFFSET 1.000603 2.690872 0.366626
											}
										}
									}
								}
								JOINT RightHandMiddle1
								{
									OFFSET -13.776489 0.000000 0.000000
									CHANNELS 3 Xrotation Yrotation Zrotation
									JOINT RightHandMiddle2
									{
										OFFSET -3.438232 0.000000 0.000000
										CHANNELS 3 Xrotation Yrotation Zrotation
										JOINT RightHandMiddle3
										{
											OFFSET -3.691551 0.000000 0.000000
											CHANNELS 3 Xrotation Yrotation Zrotation
											End Site
											{
												OFFSET 1.082298 3.499527 0.457670
											}
										}
									}
								}
								JOINT RightHandRing1
								{
									OFFSET -13.966164 -0.268127 -3.067488
									CHANNELS 3 Xrotation Yrotation Zrotation
									JOINT RightHandRing2
									{
										OFFSET -3.162567 0.000000 0.000000
										CHANNELS 3 Xrotation Yrotation Zrotation
										JOINT RightHandRing3
										{
											OFFSET -3.324348 0.000000 0.000000
											CHANNELS 3 Xrotation Yrotation Zrotation
											End Site
											{
												OFFSET 0.861900 3.184998 0.405154
											}
										}
									}
								}
								JOINT RightHandPinky1
								{
									OFFSET -13.131393 -0.168503 -5.746925
									CHANNELS 3 Xrotation Yrotation Zrotation
									JOINT RightHandPinky2
									{
										OFFSET -2.849182 0.000000 0.000000
										CHANNELS 3 Xrotation Yrotation Zrotation
										JOINT RightHandPinky3
										{
											OFFSET -2.805038 0.000000 0.000000
											CHANNELS 3 Xrotation Yrotation Zrotation
											End Site
											{
												OFFSET 0.882500 2.642609 0.325652
											}
										}
									}
								}
							}
							JOINT Right_Sleeve
							{
								OFFSET -6.592125 -0.646545 0.805568
								CHANNELS 3 Xrotation Yrotation Zrotation
								End Site
								{
									OFFSET 0.000179 20.275787 -0.000000
								}
							}
						}
					}
				}
				JOINT Bind_Right_JacketString
				{
					OFFSET -3.534800 11.969597 7.200700
					CHANNELS 3 Xrotation Yrotation Zrotation
					JOINT Bind_Right_JacketString1
					{
						OFFSET -0.319900 -6.102600 2.794100
						CHANNELS 3 Xrotation Yrotation Zrotation
						End Site
						{
							OFFSET 0.000000 6.719452 0.000000
						}
					}
				}
				JOINT Bind_Left_JacketString
				{
					OFFSET 2.904800 11.969597 7.200700
					CHANNELS 3 Xrotation Yrotation Zrotation
					JOINT Bind_Left_JacketString1
					{
						OFFSET 0.364800 -5.904503 3.186800
						CHANNELS 3 Xrotation Yrotation Zrotation
						End Site
						{
							OFFSET 0.000000 6.719513 0.000000
						}
					}
				}
				JOINT HairE
				{
					OFFSET 5.915200 17.612701 -11.592200
					CHANNELS 3 Xrotation Yrotation Zrotation
					JOINT HairE1
					{
						OFFSET 0.289200 -7.171898 -1.284500
						CHANNELS 3 Xrotation Yrotation Zrotation
						End Site
						{
							OFFSET 0.000000 7.291756 0.000000
						}
					}
				}
				JOINT HairF
				{
					OFFSET -0.864800 17.612701 -11.592200
					CHANNELS 3 Xrotation Yrotation Zrotation
					JOINT HairF1
					{
						OFFSET 0.000000 -14.087097 -2.127501
						CHANNELS 3 Xrotation Yrotation Zrotation
						End Site
						{
							OFFSET 0.000000 14.246841 0.000000
						}
					}
				}
				JOINT HairG
				{
					OFFSET -8.087700 17.612701 -11.592200
					CHANNELS 3 Xrotation Yrotation Zrotation
					JOINT HairG1
					{
						OFFSET -0.293600 -6.081398 -0.910100
						CHANNELS 3 Xrotation Yrotation Zrotation
						End Site
						{
							OFFSET 0.000000 6.156120 0.000000
						}
					}
				}
			}
		}
	}
	JOINT Pouch
	{
		OFFSET 0.000000 4.394501 10.847300
		CHANNELS 3 Xrotation Yrotation Zrotation
		End Site
		{
			OFFSET 0.000000 21.880577 0.000000
		}
	}
	JOINT Bag
	{
		OFFSET -13.229000 4.813004 -0.593300
		CHANNELS 3 Xrotation Yrotation Zrotation
		End Site
		{
			OFFSET 0.000000 21.880577 0.000000
		}
	}
	JOINT OccupyGuyFacialAnim_Joint
	{
		OFFSET 1.000000 -70.206398 -1.655000
		CHANNELS 3 Xrotation Yrotation Zrotation
		End Site
		{
			OFFSET 0.000000 21.880577 0.000000
		}
	}
}
MOTION
Frames: 4
Frame Time: 0.033333
-3.363067 66.173515 0.401470 7.157343 -60.594276 7.458566 -0.000000 0.000000 -0.000000 -29.842230 25.011543 26.938570 24.795646 -7.513218 0.714142 -5.450719 -13.533356 -15.908069 -0.000000 0.000002 0.000000 -0.000003 0.000000 0.000001 -20.602260 -28.494808 -28.865800 25.017554 1.434047 -3.291017 -12.523085 5.010866 21.873356 0.000000 0.000000 -0.000000 -0.000001 0.000000 0.000001 1.456215 3.271337 -4.508855 1.103278 0.772056 -2.311257 1.124200 0.780307 -2.303507 3.646380 8.093959 5.749519 9.821722 77.752551 -21.057617 0.000000 0.000001 -0.000000 0.000000 0.000001 -0.000000 0.000000 0.000001 0.000000 0.000000 0.000001 -0.000000 -0.000000 -0.000002 0.000000 0.000000 0.000001 -0.000000 -0.000000 -0.000002 0.000000 0.000000 0.000001 -0.000000 0.000000 0.000001 -0.000000 1.122178 2.219854 -20.386622 7.635912 9.846659 -37.455924 0.382461 -52.336926 0.496171 -12.203595 8.586796 -11.491695 40.109880 -15.297126 -0.360551 5.639855 28.097875 11.338839 0.000001 -0.000000 -0.000002 6.882181 2.840098 -61.140466 8.248036 7.640077 -89.897891 0.000002 0.000000 -0.000000 -2.345567 4.688856 -62.655299 8.754073 9.897104 -87.051266 -0.000000 0.000001 0.000001 -9.042490 10.045692 -60.766281 8.524068 9.508831 -66.892994 -0.000002 -0.000001 0.000002 -17.946974 14.755075 -51.485864 8.868481 8.667060 -84.812003 -0.000004 0.000000 0.000003 0.000002 0.000002 -0.000000 0.591296 4.355962 9.158921 11.138918 -30.487642 65.086621 -25.150609 42.036485 21.124556 24.876836 7.405880 7.649199 -2.346138 -6.100518 10.731416 2.722393 -25.650016 -9.355102 0.000000 0.000001 -0.000000 0.084459 -0.896651 10.203025 0.367863 -1.819431 17.246340 0.000001 -0.000000 0.000002 0.545716 -7.353365 11.971100 2.367621 -5.897268 36.155108 0.000002 -0.000002 -0.000003 2.269412 -11.779697 13.688958 2.852779 -5.467645 38.837057 -0.000003 -0.000001 0.000002 2.485080 -20.703746 20.575330 4.015180 -3.926564 30.636045 -0.000001 0.000000 0.000000 0.000001 0.000004 -0.000001 -0.000000 -0.000001 -0.000000 -0.000000 -0.000001 -0.000001 -0.000000 -0.000001 0.000001 -0.000000 -0.000001 0.000001 -0.000000 -0.000001 -0.000000 -0.000000 -0.000001 -0.000001 -0.000000 -0.000001 0.000001 -0.000000 -0.000001 0.000001 -0.000000 -0.000001 -0.000000 -0.000000 -0.000001 -0.000001 -0.000000 0.000000 -0.000000 -0.000000 0.000000 -0.000000 -0.000000 0.000000 -0.000000 
-3.391828 66.192802 0.429562 7.203273 -60.694249 7.537991 0.000000 0.000000 -0.000000 -29.711985 25.118992 26.904049 24.670032 -7.762080 0.687692 -5.439887 -13.233746 -15.887449 0.000000 0.000000 -0.000000 0.000001 -0.000003 0.000001 -20.533741 -28.491427 -28.882606 24.825088 1.563603 -3.256043 -12.438087 4.965654 21.853156 -0.000000 0.000000 0.000000 -0.000000 0.000000 -0.000000 1.432587 3.224874 -4.593398 1.100803 0.750958 -2.314123 1.118654 0.758294 -2.306541 3.851109 7.996745 5.851439 9.634853 77.381788 -20.729634 -0.000000 0.000001 0.000000 -0.000000 0.000001 0.000000 -0.000000 0.000001 0.000000 -0.000000 0.000001 0.000000 -0.000000 -0.000001 0.000000 -0.000000 0.000001 0.000000 -0.000000 -0.000001 0.000000 -0.000000 0.000001 0.000000 -0.000000 0.000001 0.000000 1.111246 2.167026 -20.311924 7.552681 10.123145 -37.456040 0.488906 -52.194608 0.581376 -12.557533 8.747857 -11.241134 40.109883 -15.297129 -0.360555 5.639852 28.097879 11.338843 0.000000 -0.000000 -0.000002 6.882186 2.840097 -61.140473 8.248035 7.640075 -89.897891 0.000002 -0.000002 -0.000002 -2.345563 4.688858 -62.655299 8.754069 9.897105 -87.051280 0.000001 0.000001 -0.000001 -9.042494 10.045695 -60.766287 8.524069 9.508829 -66.892994 -0.000001 0.000001 0.000000 -17.946971 14.755082 -51.485864 8.868486 8.667064 -84.812003 -0.000002 -0.000001 0.000001 0.000003 -0.000002 0.000002 0.591914 4.315375 9.146276 11.287705 -30.427786 65.174007 -25.128689 41.987106 21.093718 25.028064 7.605563 7.210520 -2.346136 -6.100517 10.731420 2.663663 -25.339295 -9.257159 0.000001 -0.000001 -0.000000 0.079441 -0.873912 10.051859 0.359806 -1.793223 17.057549 -0.000001 -0.000003 0.000002 0.540660 -7.329726 11.817286 2.349685 -5.871943 35.961339 -0.000001 0.000000 0.000001 2.251629 -11.781322 13.529957 2.832414 -5.441685 38.640661 -0.000002 0.000000 -0.000003 2.476264 -20.678457 20.417911 4.000185 -3.897439 30.438796 0.000000 -0.000000 -0.000001 0.000000 0.000002 0.000002 -0.000000 -0.000004 0.000000 0.000001 -0.000000 0.000000 -0.000000 -0.000004 -0.000000 -0.000000 -0.000004 -0.000000 -0.000000 -0.000004 0.000000 0.000001 -0.000000 0.000000 -0.000000 -0.000004 -0.000000 -0.000000 -0.000004 -0.000000 -0.000000 -0.000004 0.000000 0.000001 -0.000000 0.000000 0.000000 0.000000 -0.000000 0.000000 0.000000 -0.000000 0.000000 0.000000 -0.000000 
-3.415161 66.212311 0.471797 7.257040 -60.813224 7.626387 -0.000000 0.000001 -0.000000 -29.584777 25.220890 26.861998 24.582542 -8.030303 0.661762 -5.453865 -12.889609 -15.854139 -0.000000 -0.000002 -0.000000 0.000001 -0.000000 -0.000000 -20.449298 -28.468030 -28.899572 24.594439 1.719041 -3.214142 -12.324749 4.893237 21.835845 0.000000 -0.000000 -0.000000 -0.000000 0.000000 0.000000 1.442495 3.178222 -4.649042 1.098698 0.755985 -2.309237 1.111385 0.761803 -2.302284 4.034117 8.038063 5.872030 8.948608 76.865815 -19.774275 0.000000 -0.000000 0.000000 0.000000 -0.000000 0.000000 0.000000 -0.000000 0.000000 0.000000 -0.000000 -0.000000 -0.000000 -0.000000 -0.000000 0.000000 -0.000000 -0.000000 -0.000000 -0.000000 -0.000000 0.000000 -0.000000 0.000000 0.000000 -0.000000 0.000000 1.089112 2.082704 -20.245208 7.445579 10.378161 -37.483918 0.668385 -51.956180 0.726868 -13.028434 8.749279 -10.847824 40.109880 -15.297129 -0.360553 5.639854 28.097875 11.338844 0.000000 -0.000001 0.000004 6.882187 2.840101 -61.140466 8.248037 7.640076 -89.897891 0.000001 0.000001 -0.000000 -2.345563 4.688857 -62.655292 8.754075 9.897098 -87.051266 0.000001 0.000000 0.000002 -9.042487 10.045695 -60.766281 8.524074 9.508830 -66.893001 0.000000 -0.000003 0.000000 -17.946973 14.755078 -51.485864 8.868486 8.667067 -84.812003 -0.000001 0.000001 0.000001 0.000000 -0.000001 0.000001 0.594525 4.215416 9.128900 11.385046 -30.348849 65.202106 -25.108018 41.940459 21.064641 25.111325 7.802112 6.714300 -2.346133 -6.100515 10.731416 2.608613 -25.051254 -9.166274 -0.000001 -0.000001 -0.000001 0.074901 -0.852701 9.910779 0.352222 -1.768242 16.878048 -0.000004 -0.000000 0.000002 0.536063 -7.308073 11.676463 2.332992 -5.848245 35.780465 0.000004 -0.000001 0.000001 2.235710 -11.782873 13.387462 2.813863 -5.417831 38.460904 0.000002 -0.000003 -0.000002 2.468648 -20.656331 20.280174 3.986861 -3.871292 30.262113 0.000000 0.000001 0.000002 0.000002 0.000003 0.000001 -0.000000 0.000001 -0.000000 0.000000 0.000001 -0.000000 -0.000000 0.000001 0.000001 -0.000000 0.000001 0.000001 -0.000000 0.000001 -0.000000 0.000000 0.000001 -0.000000 -0.000000 0.000001 0.000001 -0.000000 0.000001 0.000001 -0.000000 0.000001 -0.000000 0.000000 0.000001 -0.000000 -0.000000 0.000001 -0.000000 -0.000000 0.000001 -0.000000 -0.000000 0.000001 -0.000000 
-3.417728 66.232384 0.505058 7.312194 -60.946905 7.700776 -0.000000 0.000000 0.000000 -29.480828 25.308713 26.832523 24.506148 -8.283000 0.637516 -5.455372 -12.545165 -15.813413 0.000000 -0.000002 -0.000000 -0.000000 -0.000000 0.000000 -20.381968 -28.437517 -28.900911 24.366333 1.898619 -3.170290 -12.189918 4.809941 21.802686 -0.000000 -0.000000 -0.000000 -0.000001 -0.000000 -0.000002 1.519759 3.119779 -4.666973 1.102834 0.771377 -2.297756 1.114820 0.776285 -2.291739 4.142550 8.263043 5.801097 7.901918 76.174982 -18.400354 0.000000 0.000001 -0.000000 0.000000 0.000001 -0.000000 0.000000 0.000001 -0.000000 0.000000 0.000001 -0.000000 -0.000000 0.000001 -0.000000 0.000000 0.000001 -0.000000 -0.000000 0.000001 -0.000000 0.000000 0.000001 -0.000000 0.000000 0.000001 -0.000000 1.071412 1.950384 -20.198343 7.226695 10.677731 -37.490092 1.175042 -51.533951 1.133661 -13.679154 8.463234 -10.388217 40.109876 -15.297126 -0.360554 5.639855 28.097879 11.338841 0.000001 -0.000000 -0.000001 6.882180 2.840099 -61.140466 8.248037 7.640081 -89.897891 0.000003 -0.000001 -0.000004 -2.345573 4.688857 -62.655292 8.754071 9.897105 -87.051266 0.000001 0.000001 -0.000003 -9.042493 10.045696 -60.766281 8.524074 9.508833 -66.893001 0.000003 0.000002 0.000000 -17.946976 14.755078 -51.485860 8.868488 8.667064 -84.812009 -0.000003 -0.000000 0.000001 0.000000 -0.000001 -0.000002 0.595854 4.075065 9.107092 11.383120 -30.229123 65.171418 -25.089168 41.897948 21.038084 25.111375 8.000197 6.227326 -2.346138 -6.100516 10.731419 2.557991 -24.787873 -9.082997 0.000000 0.000000 0.000001 0.071019 -0.833921 9.786103 0.345554 -1.745619 16.715676 0.000002 0.000002 0.000001 0.532323 -7.289440 11.555313 2.318364 -5.827186 35.620628 0.000007 -0.000001 0.000001 2.222475 -11.784213 13.268524 2.797905 -5.397253 38.306218 0.000003 -0.000003 -0.000002 2.462534 -20.638369 20.169279 3.975810 -3.849484 30.114584 -0.000001 0.000001 0.000001 0.000001 0.000003 -0.000002 -0.000000 0.000001 0.000001 0.000000 -0.000001 0.000000 -0.000000 0.000001 0.000001 -0.000000 0.000001 0.000001 -0.000000 0.000001 0.000001 0.000000 -0.000001 0.000001 -0.000000 0.000001 0.000001 -0.000000 0.000001 0.000001 -0.000000 0.000001 0.000001 0.000000 -0.000001 0.000001 -0.000000 0.000000 0.000000 -0.000000 0.000000 0.000000 -0.000000 0.000000 0.000000 
